<svg width="20" height="21" viewBox="0 0 20 21" fill="none" xmlns="http://www.w3.org/2000/svg">
<path d="M17.4598 3.41516C16.2951 2.25056 14.4069 2.25061 13.2424 3.41529L3.28403 13.3748C2.94542 13.7135 2.70742 14.1394 2.5965 14.6052L1.68351 18.4398C1.63324 18.651 1.6961 18.8731 1.84957 19.0265C2.00304 19.18 2.22514 19.2428 2.43628 19.1926L6.27065 18.2797C6.73665 18.1687 7.16272 17.9306 7.50143 17.5918L17.4598 7.63226C18.6243 6.46768 18.6243 4.57966 17.4598 3.41516ZM14.1263 4.29911C14.8027 3.62266 15.8994 3.62262 16.5758 4.29905C17.2522 4.97541 17.2523 6.07201 16.5759 6.74842L15.8332 7.4913L13.3837 5.04185L14.1263 4.29911ZM12.4998 5.92578L14.9493 8.37523L6.61749 16.708C6.44237 16.8832 6.22207 17.0062 5.98113 17.0637L3.13476 17.7413L3.81251 14.8948C3.86985 14.6539 3.9929 14.4337 4.16796 14.2587L12.4998 5.92578Z" fill="#9A9A9A"/>
</svg>
