<svg width="16" height="16" viewBox="0 0 16 16" fill="none" xmlns="http://www.w3.org/2000/svg">
<path d="M3.66671 4.66667C3.66671 3.74619 4.4129 3 5.33337 3C6.25385 3 7.00004 3.74619 7.00004 4.66667C7.00004 5.58714 6.25385 6.33333 5.33337 6.33333C4.4129 6.33333 3.66671 5.58714 3.66671 4.66667ZM5.33337 2C3.86061 2 2.66671 3.19391 2.66671 4.66667C2.66671 6.13943 3.86061 7.33333 5.33337 7.33333C6.80611 7.33333 8.00004 6.13943 8.00004 4.66667C8.00004 3.19391 6.80611 2 5.33337 2ZM10.3334 5.33333C10.3334 4.78105 10.7811 4.33333 11.3334 4.33333C11.8856 4.33333 12.3334 4.78105 12.3334 5.33333C12.3334 5.88562 11.8856 6.33333 11.3334 6.33333C10.7811 6.33333 10.3334 5.88562 10.3334 5.33333ZM11.3334 3.33333C10.2288 3.33333 9.33337 4.22877 9.33337 5.33333C9.33337 6.4379 10.2288 7.33333 11.3334 7.33333C12.438 7.33333 13.3334 6.4379 13.3334 5.33333C13.3334 4.22877 12.438 3.33333 11.3334 3.33333ZM2.83337 8.66667C2.00495 8.66667 1.33337 9.33827 1.33337 10.1667V10.3341V10.3348L1.33338 10.3365L1.33342 10.3407L1.33361 10.3518C1.3338 10.3604 1.33415 10.3714 1.33477 10.3847C1.33601 10.4113 1.33834 10.447 1.34269 10.4905C1.35138 10.5774 1.36826 10.6967 1.40114 10.8376C1.46667 11.1184 1.59773 11.4936 1.86126 11.8701C2.40715 12.6499 3.44789 13.3333 5.33337 13.3333C6.24602 13.3333 6.96077 13.1732 7.51724 12.9195C7.41791 12.5901 7.35671 12.244 7.33884 11.8866C6.90891 12.1405 6.27515 12.3333 5.33337 12.3333C3.71885 12.3333 3.0096 11.7667 2.68049 11.2966C2.50651 11.0481 2.41883 10.7983 2.37498 10.6103C2.35317 10.5169 2.34271 10.4408 2.33773 10.391C2.33525 10.3662 2.33415 10.3481 2.33369 10.3381L2.33337 10.3298V10.1667C2.33337 9.89053 2.55723 9.66667 2.83337 9.66667H7.82151C7.98717 9.34887 8.19104 9.0542 8.42704 8.78873C8.24497 8.7102 8.04424 8.66667 7.83337 8.66667H2.83337ZM15.3334 11.6667C15.3334 9.6416 13.6918 8 11.6667 8C9.64164 8 8.00004 9.6416 8.00004 11.6667C8.00004 13.6917 9.64164 15.3333 11.6667 15.3333C13.6918 15.3333 15.3334 13.6917 15.3334 11.6667ZM12.0004 12L12.0008 13.669C12.0008 13.8531 11.8516 14.0023 11.6674 14.0023C11.4834 14.0023 11.3341 13.8531 11.3341 13.669L11.3338 12H9.66377C9.47984 12 9.33077 11.8508 9.33077 11.6667C9.33077 11.4826 9.47984 11.3333 9.66377 11.3333H11.3337L11.3334 9.6662C11.3334 9.48207 11.4826 9.33287 11.6667 9.33287C11.8508 9.33287 12 9.48207 12 9.6662L12.0004 11.3333H13.6644C13.8484 11.3333 13.9974 11.4826 13.9974 11.6667C13.9974 11.8508 13.8484 12 13.6644 12H12.0004Z" fill="#3E3E3E"/>
</svg>
