<svg width="24" height="24" viewBox="0 0 24 24" fill="none" xmlns="http://www.w3.org/2000/svg">
<path d="M22 14.1602H19V2.16016H22C22.5523 2.16016 23 2.60786 23 3.16016V13.1602C23 13.7125 22.5523 14.1602 22 14.1602ZM16.7071 15.4531L10.3066 21.8535C10.1307 22.0295 9.8521 22.0493 9.6531 21.9L8.8005 21.2606C8.3158 20.897 8.0974 20.2776 8.2469 19.6905L9.4002 15.1602H3C1.8954 15.1602 1 14.2648 1 13.1602V11.0559C1 10.7946 1.0512 10.5359 1.1506 10.2944L4.245 2.77946C4.3993 2.40476 4.7645 2.16016 5.1697 2.16016H16C16.5523 2.16016 17 2.60786 17 3.16016V14.746C17 15.0112 16.8946 15.2655 16.7071 15.4531Z" fill="#1E3A8A"/>
</svg>
