<svg width="24" height="24" viewBox="0 0 24 24" fill="none" xmlns="http://www.w3.org/2000/svg">
<path d="M9.4002 14.6393H3C1.8954 14.6393 1 13.7439 1 12.6393V10.5349C1 10.2737 1.0512 10.015 1.1506 9.77345L4.245 2.25855C4.3993 1.88385 4.7645 1.63935 5.1697 1.63935H22C22.5523 1.63935 23 2.08705 23 2.63935V12.6393C23 13.1916 22.5523 13.6393 22 13.6393H18.5182C18.1932 13.6393 17.8886 13.7972 17.7012 14.0626L12.2478 21.7883C12.1053 21.9902 11.8367 22.0577 11.6157 21.9472L9.8016 21.0401C8.75 20.5143 8.2069 19.3267 8.4969 18.1873L9.4002 14.6393ZM17 12.0518V3.63935H5.8394L3 10.5349V12.6393H9.4002C10.7049 12.6393 11.6602 13.8684 11.3384 15.1327L10.4351 18.6807C10.3771 18.9086 10.4857 19.1461 10.6961 19.2513L11.3572 19.5818L16.0672 12.9093C16.3171 12.5552 16.6366 12.265 17 12.0518ZM19 11.6393H21V3.63935H19V11.6393Z" fill="#1E3A8A"/>
</svg>
