<svg width="72" height="72" viewBox="0 0 72 72" fill="none" xmlns="http://www.w3.org/2000/svg">
<path d="M12 60C10.35 60 8.938 59.413 7.764 58.239C6.59 57.065 6.002 55.652 6 54V18C6 16.35 6.588 14.938 7.764 13.764C8.94 12.59 10.352 12.002 12 12H27.525C28.325 12 29.088 12.15 29.814 12.45C30.54 12.75 31.177 13.175 31.725 13.725L36 18H63C63.85 18 64.563 18.288 65.139 18.864C65.715 19.44 66.002 20.152 66 21C65.998 21.848 65.71 22.561 65.136 23.139C64.562 23.717 63.85 24.004 63 24H23.55C20.45 24 17.75 24.975 15.45 26.925C13.15 28.875 12 31.35 12 34.35V54L17.925 34.275C18.325 32.975 19.063 31.938 20.139 31.164C21.215 30.39 22.402 30.002 23.7 30H62.4C64.45 30 66.063 30.813 67.239 32.439C68.415 34.065 68.727 35.827 68.175 37.725L62.775 55.725C62.375 57.025 61.638 58.063 60.564 58.839C59.49 59.615 58.302 60.002 57 60H12Z" fill="currentColor"/>
</svg>