<svg width="16" height="16" viewBox="0 0 16 16" fill="none" xmlns="http://www.w3.org/2000/svg">
<path d="M2.33337 4.16667V5.33333H5.41916C5.55177 5.33333 5.67895 5.28065 5.77271 5.18689L6.79291 4.16667L5.77271 3.14645C5.67895 3.05268 5.55177 3 5.41916 3H3.50004C2.85571 3 2.33337 3.52233 2.33337 4.16667ZM1.33337 4.16667C1.33337 2.97005 2.30342 2 3.50004 2H5.41916C5.81699 2 6.19851 2.15803 6.47982 2.43934L7.70717 3.66667H12.5C13.6966 3.66667 14.6667 4.63671 14.6667 5.83333V11.8333C14.6667 13.0299 13.6966 14 12.5 14H3.50004C2.30342 14 1.33337 13.0299 1.33337 11.8333V4.16667ZM2.33337 6.33333V11.8333C2.33337 12.4777 2.85571 13 3.50004 13H12.5C13.1444 13 13.6667 12.4777 13.6667 11.8333V5.83333C13.6667 5.189 13.1444 4.66667 12.5 4.66667H7.70717L6.47982 5.89399C6.19851 6.1753 5.81699 6.33333 5.41916 6.33333H2.33337Z" fill="#3E3E3E"/>
</svg>
