<svg viewBox="0 0 30 30" fill="none" xmlns="http://www.w3.org/2000/svg">
<path fill-rule="evenodd" clip-rule="evenodd" d="M28.8084 15.3232C28.8084 14.3154 28.718 13.3463 28.55 12.416H15.1638V17.9139H22.8131C22.4836 19.6905 21.4822 21.1958 19.9769 22.2037V25.7699H24.5703C27.2579 23.2955 28.8084 19.6518 28.8084 15.3232Z" fill="#4285F4"/>
<path fill-rule="evenodd" clip-rule="evenodd" d="M15.164 29.2133C19.0015 29.2133 22.2189 27.9406 24.5705 25.7699L19.9771 22.2037C18.7044 23.0564 17.0763 23.5604 15.164 23.5604C11.4621 23.5604 8.32879 21.0601 7.21112 17.7007H2.46265V21.3832C4.80135 26.0283 9.60797 29.2133 15.164 29.2133Z" fill="#34A853"/>
<path fill-rule="evenodd" clip-rule="evenodd" d="M7.21116 17.7007C6.9269 16.8479 6.76538 15.9369 6.76538 15.0002C6.76538 14.0634 6.9269 13.1525 7.21116 12.2997V8.61719H2.46269C1.50007 10.536 0.950928 12.7067 0.950928 15.0002C0.950928 17.2936 1.50007 19.4644 2.46269 21.3832L7.21116 17.7007Z" fill="#FBBC05"/>
<path fill-rule="evenodd" clip-rule="evenodd" d="M15.164 6.44005C17.2507 6.44005 19.1243 7.15717 20.5973 8.56556L24.6739 4.48898C22.2124 2.1955 18.9951 0.787109 15.164 0.787109C9.60797 0.787109 4.80135 3.97214 2.46265 8.61724L7.21112 12.2997C8.32879 8.94027 11.4621 6.44005 15.164 6.44005Z" fill="#EA4335"/>
</svg>
