<svg width="29" height="29" viewBox="0 0 29 29" fill="none" xmlns="http://www.w3.org/2000/svg">
<g clip-path="url(#clip0_3667_8024)">
<path d="M26.1 0H2.9C1.29837 0 0 1.29837 0 2.9V26.1C0 27.7016 1.29837 29 2.9 29H26.1C27.7016 29 29 27.7016 29 26.1V2.9C29 1.29837 27.7016 0 26.1 0Z" fill="#F2F2F2"/>
<mask id="mask0_3667_8024" style="mask-type:luminance" maskUnits="userSpaceOnUse" x="7" y="7" width="15" height="15">
<path d="M21.75 7.25H7.25V21.75H21.75V7.25Z" fill="white"/>
</mask>
<g mask="url(#mask0_3667_8024)">
<path d="M21.46 14.6649C21.46 14.1508 21.4139 13.6565 21.3282 13.1819H14.5V15.9863H18.4018C18.2337 16.8926 17.723 17.6604 16.9551 18.1745V19.9936H19.2982C20.6691 18.7315 21.46 16.8728 21.46 14.6649Z" fill="#4285F4"/>
<path d="M14.4999 21.7499C16.4574 21.7499 18.0985 21.1007 19.298 19.9935L16.955 18.1744C16.3058 18.6094 15.4753 18.8664 14.4999 18.8664C12.6116 18.8664 11.0133 17.5911 10.4431 15.8774H8.021V17.7558C9.21398 20.1253 11.6658 21.7499 14.4999 21.7499Z" fill="#34A853"/>
<path d="M10.4433 15.8775C10.2983 15.4425 10.2159 14.9779 10.2159 14.5C10.2159 14.0222 10.2983 13.5575 10.4433 13.1225V11.2441H8.02111C7.53014 12.2229 7.25 13.3302 7.25 14.5C7.25 15.6699 7.53014 16.7772 8.02111 17.7559L10.4433 15.8775Z" fill="#FBBC04"/>
<path d="M14.4999 10.1335C15.5643 10.1335 16.52 10.4993 17.2713 11.2177L19.3508 9.13826C18.0952 7.9684 16.4541 7.25 14.4999 7.25C11.6658 7.25 9.21398 8.87465 8.021 11.2441L10.4431 13.1225C11.0133 11.4089 12.6116 10.1335 14.4999 10.1335Z" fill="#E94235"/>
</g>
</g>
<defs>
<clipPath id="clip0_3667_8024">
<rect width="29" height="29" fill="white"/>
</clipPath>
</defs>
</svg>
