<svg viewBox="0 0 36 36" fill="none" stroke="#1E3A8A" xmlns="http://www.w3.org/2000/svg">
<path d="M25.0137 5.42969C28.9433 5.42969 32.0137 8.50004 32.0137 12.4297C32.0137 14.854 30.9346 17.1514 28.7803 19.7871C27.1537 21.7771 24.9891 23.8732 22.3682 26.2871L19.5977 28.8145L18.2666 30.0166L16.9297 28.8008L16.9287 28.7988L14.1582 26.2764C11.5375 23.867 9.37343 21.7735 7.74707 19.7852C5.59294 17.1515 4.51367 14.8541 4.51367 12.4297C4.51367 8.50004 7.58403 5.42969 11.5137 5.42969C13.7451 5.42969 15.906 6.47466 17.3115 8.125L18.2637 9.24316L19.2158 8.125C20.6213 6.47466 22.7823 5.42969 25.0137 5.42969Z"  stroke-width="2.5"/>
<path d="M18 31.525L15.825 29.545C8.1 22.54 3 17.92 3 12.25C3 7.63 6.63 4 11.25 4C13.86 4 16.365 5.215 18 7.135C19.635 5.215 22.14 4 24.75 4C29.37 4 33 7.63 33 12.25C33 17.92 27.9 22.54 20.175 29.56L18 31.525Z" fill="currentColor"/>
</svg>
