<svg width="101" height="36" viewBox="0 0 101 36" fill="none" xmlns="http://www.w3.org/2000/svg">
<path d="M79.8995 1C84.34 1 87.9397 5.23924 87.9397 10.4686V24.6715C87.9397 28.814 91.4573 35.335 95.9799 35.9267L100 36H50H25H4.0201C8.0402 35.4082 12.5628 29.4058 12.5628 24.6715V10.4686C12.5628 5.23924 16.1625 1 20.603 1H79.8995Z" fill="currentColor"/>
<path d="M100 34.9855H94.4724C89.9497 34.3937 87.9397 28.814 87.9397 24.6715V10.4686C87.9397 5.23924 84.34 1 79.8995 1H20.603C16.1625 1 12.5628 5.23924 12.5628 10.4686V24.6715C12.5628 26.8696 11.8024 29.4058 10.7912 31.1227C9.43995 33.4168 8.0402 34.9855 5.52764 34.9855H1.00502" stroke="#B9B9B9" stroke-linecap="square"/>
</svg>
