<svg width="10" height="10" viewBox="0 0 10 10" fill="none" xmlns="http://www.w3.org/2000/svg">
<g clip-path="url(#clip0_980_5504)">
<path d="M5.00008 0.83252C7.30162 0.83252 9.16737 2.69829 9.16737 4.99983C9.16737 7.30137 7.30162 9.16712 5.00008 9.16712C2.69853 9.16712 0.832764 7.30137 0.832764 4.99983C0.832764 2.69829 2.69853 0.83252 5.00008 0.83252ZM5.00008 1.45752C3.04371 1.45752 1.45776 3.04347 1.45776 4.99983C1.45776 6.95621 3.04371 8.54212 5.00008 8.54212C6.95646 8.54212 8.54237 6.95621 8.54237 4.99983C8.54237 3.04347 6.95646 1.45752 5.00008 1.45752ZM4.99854 4.37442C5.15675 4.37433 5.28758 4.49179 5.30837 4.64433L5.31125 4.68671L5.31275 6.97904C5.31287 7.15162 5.17304 7.29167 5.00046 7.29175C4.84225 7.29187 4.71141 7.17437 4.69062 7.02187L4.68775 6.97946L4.68625 4.68712C4.68616 4.51454 4.82596 4.37454 4.99854 4.37442ZM5.00025 2.91702C5.23008 2.91702 5.41637 3.10332 5.41637 3.33314C5.41637 3.56294 5.23008 3.74924 5.00025 3.74924C4.77046 3.74924 4.58416 3.56294 4.58416 3.33314C4.58416 3.10332 4.77046 2.91702 5.00025 2.91702Z" fill="#D8D8D8"/>
</g>
<defs>
<clipPath id="clip0_980_5504">
<rect width="10" height="10" fill="white"/>
</clipPath>
</defs>
</svg>
