<svg width="29" height="29" viewBox="0 0 29 29" fill="none" xmlns="http://www.w3.org/2000/svg">
<path d="M0 3C0 1.34315 1.34315 0 3 0H26C27.6569 0 29 1.34315 29 3V26C29 27.6569 27.6569 29 26 29H3C1.34315 29 0 27.6569 0 26V3Z" fill="#FEE500"/>
<g clip-path="url(#clip0_3667_8020)">
<path fill-rule="evenodd" clip-rule="evenodd" d="M14 6.47613C9.02919 6.47613 5.00002 9.60553 5.00002 13.4651C5.00002 15.8655 6.55842 17.9815 8.93154 19.2401L7.93305 22.9069C7.84483 23.2309 8.21343 23.4892 8.49648 23.3014L12.8734 20.3974C13.2427 20.4333 13.6181 20.4542 14 20.4542C18.9705 20.4542 22.9999 17.3249 22.9999 13.4651C22.9999 9.60553 18.9705 6.47613 14 6.47613" fill="black"/>
</g>
<defs>
<clipPath id="clip0_3667_8020">
<rect width="18" height="18" fill="white" transform="translate(5 6)"/>
</clipPath>
</defs>
</svg>
