<svg width="24" height="24" viewBox="0 0 24 24" fill="none" xmlns="http://www.w3.org/2000/svg">
<path d="M12 8.43548C11.1716 8.43548 10.5 7.77835 10.5 6.96774C10.5 6.15713 11.1716 5.5 12 5.5C12.8284 5.5 13.5 6.15713 13.5 6.96774C13.5 7.77835 12.8284 8.43548 12 8.43548ZM12 13.4677C11.1716 13.4677 10.5 12.8106 10.5 12C10.5 11.1894 11.1716 10.5323 12 10.5323C12.8284 10.5323 13.5 11.1894 13.5 12C13.5 12.8106 12.8284 13.4677 12 13.4677ZM10.5 17.0323C10.5 17.8429 11.1716 18.5 12 18.5C12.8284 18.5 13.5 17.8429 13.5 17.0323C13.5 16.2216 12.8284 15.5645 12 15.5645C11.1716 15.5645 10.5 16.2216 10.5 17.0323Z" fill="#7B7B7B"/>
</svg>
