<svg width="25" height="25" viewBox="0 0 25 25" fill="none" xmlns="http://www.w3.org/2000/svg">
<path d="M4.16638 12.2083H6.54138V22.1663H4.16638C3.85704 22.1662 3.55885 22.0589 3.32166 21.8645L3.224 21.7756C2.97405 21.5256 2.83337 21.1868 2.83337 20.8333V13.5413C2.83345 13.232 2.94084 12.9337 3.13513 12.6965L3.224 12.5989C3.47397 12.3489 3.81288 12.2083 4.16638 12.2083ZM11.9252 2.87915C12.3051 2.9553 12.6617 3.12429 12.9633 3.37134L13.1381 3.52856C13.5835 3.97396 13.8334 4.57836 13.8334 5.20825V9.37524C13.8335 9.78931 14.1693 10.1252 14.5834 10.1252H20.4877C20.6325 10.1236 20.7763 10.1453 20.9135 10.1897L21.0492 10.2415C21.1815 10.3009 21.3026 10.3817 21.4086 10.4797L21.5092 10.5833C21.6043 10.6927 21.6807 10.8169 21.7357 10.9504L21.7836 11.0862C21.8239 11.2253 21.8414 11.3699 21.8353 11.5139L21.8207 11.6584L20.3842 21.0325L20.3832 21.0334C20.341 21.3116 20.2127 21.5685 20.017 21.7678L19.9291 21.8489C19.7147 22.0311 19.4487 22.1404 19.1703 22.1624L19.0502 22.1663H8.04138V11.6174L11.9252 2.87915Z" stroke="#1E3A8A" stroke-width="1.5" stroke-linecap="round" stroke-linejoin="round"/>
</svg>
