<svg width="24" height="24" viewBox="0 0 24 24" fill="none" xmlns="http://www.w3.org/2000/svg">
<path d="M14.5998 9.36068H21C22.1046 9.36068 23 10.2561 23 11.3607V13.4651C23 13.7263 22.9488 13.985 22.8494 14.2266L19.755 21.7415C19.6007 22.1162 19.2355 22.3607 18.8303 22.3607H2C1.44772 22.3607 1 21.913 1 21.3607V11.3607C1 10.8084 1.44772 10.3607 2 10.3607H5.48184C5.80677 10.3607 6.11143 10.2028 6.29881 9.93736L11.7522 2.21171C11.8947 2.00984 12.1633 1.94233 12.3843 2.05283L14.1984 2.95986C15.25 3.48569 15.7931 4.67327 15.5031 5.8127L14.5998 9.36068ZM7 11.9482V20.3607H18.1606L21 13.4651V11.3607H14.5998C13.2951 11.3607 12.3398 10.1316 12.6616 8.86726L13.5649 5.31929C13.6229 5.0914 13.5143 4.85388 13.3039 4.74872L12.6428 4.41815L7.93275 11.0907C7.68285 11.4448 7.36341 11.735 7 11.9482ZM5 12.3607H3V20.3607H5V12.3607Z" fill="#1E3A8A"/>
</svg>
