<svg width="25" height="25" viewBox="0 0 25 25" fill="none" xmlns="http://www.w3.org/2000/svg">
<path d="M14.4983 9.29045V5.12448C14.4983 4.29582 14.1691 3.50109 13.5832 2.91514C12.9972 2.32919 12.2024 2 11.3737 2C11.2382 2.30505 11.1026 2.61009 10.967 2.91514L7.20763 11.3734V22.8299H18.9561C19.4584 22.8355 19.9459 22.6595 20.3287 22.3341C20.7115 22.0088 20.9638 21.556 21.0391 21.0593L22.4764 11.6859C22.5217 11.3874 22.5016 11.0825 22.4174 10.7925C22.3332 10.5026 22.187 10.2344 21.9888 10.0065C21.7907 9.77864 21.5454 9.59658 21.2699 9.47294C20.9944 9.3493 20.6953 9.28703 20.3934 9.29045H14.4983Z" fill="#1E3A8A"/>
<path d="M2.61011 22.2198C3.00076 22.6104 3.53059 22.8299 4.08305 22.8299H5.64534V11.3734H4.08305C3.53059 11.3734 3.00076 11.5929 2.61011 11.9835C2.21946 12.3742 2 12.904 2 13.4564V20.7469C2 21.2993 2.21946 21.8291 2.61011 22.2198Z" fill="#1E3A8A"/>
</svg>
