<svg width="24" height="24" viewBox="0 0 24 24" fill="none" xmlns="http://www.w3.org/2000/svg">
<path d="M2 9.83981H5V21.8398H2C1.44772 21.8398 1 21.3921 1 20.8398V10.8398C1 10.2875 1.44772 9.83981 2 9.83981ZM7.29289 8.54692L13.6934 2.14645C13.8693 1.9705 14.1479 1.95071 14.3469 2.1L15.1995 2.73944C15.6842 3.10296 15.9026 3.72237 15.7531 4.3095L14.5998 8.83981H21C22.1046 8.83981 23 9.73524 23 10.8398V12.9441C23 13.2054 22.9488 13.4641 22.8494 13.7056L19.755 21.2205C19.6007 21.5952 19.2355 21.8398 18.8303 21.8398H8C7.44772 21.8398 7 21.3921 7 20.8398V9.25403C7 8.98881 7.10536 8.73446 7.29289 8.54692Z" fill="#1E3A8A"/>
</svg>
