<svg width="24" height="20" viewBox="0 0 24 20" fill="none" xmlns="http://www.w3.org/2000/svg">
<g clip-path="url(#clip0_3088_4166)">
<path d="M12.4604 2.60967V3.84891H13.8201C13.8477 3.84891 14.0439 3.91087 14.0886 3.92464C14.6222 4.10709 14.9836 4.6613 14.9389 5.22585H19.8786C20.9629 5.19142 22.1332 6.29297 22.1332 7.37731V10.114H22.9766C23.3587 10.114 23.9129 10.7474 23.9129 11.1398C23.8613 12.2861 24.0127 13.546 23.9232 14.6785C23.8785 15.2362 23.4035 15.9005 22.8045 15.9005H22.1332V17.8799C22.1332 18.8024 21.1247 19.8524 20.2193 19.9591L3.83748 19.966C2.85987 19.9074 1.82374 18.8231 1.82374 17.8489V15.8696H1.04923C1.00104 15.8696 0.684346 15.7181 0.622385 15.6768C0.271271 15.4599 0.0647342 15.0916 0.0337536 14.682C-0.0591882 13.5184 0.0681766 12.1759 0.0785035 11.009C0.112926 10.6579 0.636154 10.1209 0.980383 10.1209H1.82374V7.41862C1.82374 6.29297 2.98724 5.19831 4.11287 5.23273H9.01813C9.00436 4.74048 9.26942 4.24134 9.71003 4.01759C9.79609 3.97283 10.0921 3.85924 10.1713 3.85924H11.531V2.67163C11.235 2.50295 11.0009 2.37215 10.8288 2.06578C10.099 0.778342 11.6033 -0.612363 12.7806 0.286088C13.6239 0.926363 13.469 2.27576 12.4604 2.61999V2.60967ZM21.0317 9.35666V7.37731C21.0317 6.89883 20.302 6.27232 19.8097 6.3274H4.07844C3.6757 6.38592 3.29016 6.5959 3.09051 6.96079C2.89085 7.32568 2.92528 7.336 2.92528 7.38075V9.3601H21.0317V9.35666ZM21.0317 10.4582H2.92528V17.8764C2.92528 18.3205 3.65504 18.9367 4.11287 18.8919H19.913C20.3467 18.8885 21.0317 18.3067 21.0317 17.8764V10.4582ZM1.82374 11.1811H1.29019C1.16627 11.1811 1.07677 11.4324 1.063 11.5391C0.973499 12.4616 1.13184 13.5288 1.063 14.4651C1.03546 14.5443 1.20413 14.7921 1.25232 14.7921H1.8203V11.1777L1.82374 11.1811ZM22.1332 14.83H22.7012C22.7494 14.83 22.9181 14.5821 22.8906 14.503C22.8389 13.546 22.9594 12.5236 22.8906 11.577C22.8837 11.4806 22.8114 11.1811 22.7012 11.1811H22.1332V14.83Z" fill="#1E3A8A"/>
<path d="M9.32514 15.1568C9.72101 15.1189 9.93443 15.5802 10.2098 15.8039C11.2046 16.606 12.8982 16.5888 13.8586 15.7351C14.819 14.8814 14.4783 14.8469 14.9774 15.3013C15.4455 15.7282 14.8569 16.2927 14.5299 16.5784C13.2321 17.7006 11.1358 17.7557 9.73478 16.7953C9.46284 16.6094 8.86732 16.1103 8.82257 15.7764C8.77782 15.4425 9.02911 15.1843 9.32514 15.1568Z" fill="#1E3A8A"/>
<path d="M15.8311 11.2669C17.6762 11.019 17.8001 14.5406 16.0273 14.5991C14.375 14.6542 14.2064 11.4872 15.8311 11.2669Z" fill="#1E3A8A"/>
<path d="M7.81065 11.2668C9.4595 11.0431 9.82783 14.0345 8.32011 14.5302C6.48537 15.136 6.04131 11.5078 7.81065 11.2668Z" fill="#1E3A8A"/>
<path d="M4.90523 7.84173C5.24553 7.84173 5.5214 7.56586 5.5214 7.22555C5.5214 6.88525 5.24553 6.60938 4.90523 6.60938C4.56493 6.60938 4.28906 6.88525 4.28906 7.22555C4.28906 7.56586 4.56493 7.84173 4.90523 7.84173Z" fill="#1E3A8A"/>
<path d="M9.0463 7.84164C9.3828 7.84164 9.65558 7.56885 9.65558 7.23234C9.65558 6.89584 9.3828 6.62305 9.0463 6.62305C8.7098 6.62305 8.43701 6.89584 8.43701 7.23234C8.43701 7.56885 8.7098 7.84164 9.0463 7.84164Z" fill="#1E3A8A"/>
<path d="M6.98087 7.84164C7.31737 7.84164 7.59015 7.56885 7.59015 7.23234C7.59015 6.89584 7.31737 6.62305 6.98087 6.62305C6.64437 6.62305 6.37158 6.89584 6.37158 7.23234C6.37158 7.56885 6.64437 7.84164 6.98087 7.84164Z" fill="#1E3A8A"/>
</g>
<defs>
<clipPath id="clip0_3088_4166">
<rect width="23.9583" height="20" fill="white"/>
</clipPath>
</defs>
</svg>
