<svg viewBox="0 0 20 20" fill="none" xmlns="http://www.w3.org/2000/svg">
<rect width="20" height="20" rx="10" fill="#D8D8D8"/>
<path d="M10.0081 3.5C10.4975 3.50564 10.9849 3.56217 11.4625 3.66869C11.6709 3.71519 11.8269 3.88901 11.8505 4.10131L11.964 5.11921C12.0154 5.58657 12.41 5.94056 12.8804 5.94105C13.0069 5.94125 13.1319 5.91492 13.2488 5.86322L14.1825 5.45304C14.3767 5.36773 14.6037 5.41424 14.7486 5.56908C15.4234 6.28976 15.9259 7.1541 16.2185 8.09705C16.2815 8.30039 16.2089 8.52135 16.0376 8.64767L15.2099 9.25773C14.9738 9.4312 14.8344 9.70667 14.8344 9.99967C14.8344 10.2926 14.9738 10.5681 15.2105 10.7419L16.0388 11.3522C16.2102 11.4785 16.2829 11.6995 16.2198 11.9029C15.9274 12.8457 15.4251 13.7099 14.7507 14.4307C14.6059 14.5855 14.3792 14.6322 14.185 14.5471L13.2475 14.1363C12.9792 14.0189 12.6712 14.0361 12.4177 14.1827C12.1642 14.3291 11.9955 14.5875 11.9633 14.8785L11.8506 15.8963C11.8273 16.1061 11.6748 16.2788 11.4693 16.3277C10.5037 16.5574 9.49767 16.5574 8.53202 16.3277C8.32661 16.2788 8.17403 16.1061 8.15079 15.8963L8.03824 14.88C8.00518 14.5895 7.83623 14.332 7.58295 14.186C7.32967 14.04 7.02213 14.0229 6.7548 14.1396L5.81705 14.5504C5.62281 14.6355 5.39602 14.5889 5.25119 14.4339C4.57641 13.7123 4.07413 12.847 3.78213 11.9032C3.71924 11.6999 3.79191 11.4791 3.96323 11.3529L4.79212 10.7422C5.02821 10.5687 5.16765 10.2933 5.16765 10.0003C5.16765 9.70733 5.02821 9.43187 4.79181 9.2582L3.96344 8.64857C3.79187 8.5223 3.71913 8.30119 3.78225 8.09772C4.07475 7.15477 4.57729 6.29043 5.25209 5.56975C5.39706 5.41491 5.62396 5.36839 5.81816 5.45371L6.75175 5.86381C7.02037 5.98171 7.3292 5.9639 7.58385 5.81513C7.83739 5.66806 8.00619 5.40948 8.03878 5.11843L8.15216 4.10131C8.17584 3.8889 8.33191 3.71503 8.54053 3.66863C9.01873 3.56228 9.50667 3.50577 10.0081 3.5ZM10.0083 4.49993C9.70553 4.50349 9.40373 4.52962 9.1052 4.57801L9.0326 5.22945C8.96473 5.83579 8.61335 6.37401 8.08695 6.67935C7.55731 6.98878 6.91157 7.02602 6.34972 6.77945L5.75086 6.51637C5.36957 6.97915 5.06609 7.5009 4.85235 8.06112L5.38421 8.45253C5.87675 8.8144 6.16765 9.38913 6.16765 10.0003C6.16765 10.6115 5.87675 11.1862 5.38473 11.5477L4.85203 11.9401C5.06559 12.5013 5.36912 13.0241 5.75067 13.4877L6.35409 13.2234C6.91282 12.9795 7.55416 13.0151 8.08235 13.3196C8.61054 13.6241 8.96287 14.1611 9.032 14.7684L9.10467 15.4243C9.69773 15.5252 10.3037 15.5252 10.8967 15.4243L10.9694 14.7685C11.0366 14.1614 11.3885 13.6225 11.9173 13.3169C12.4461 13.0112 13.0888 12.9753 13.6485 13.2203L14.2515 13.4845C14.6327 13.0215 14.9361 12.4997 15.1498 11.9393L14.6178 11.5474C14.1253 11.1855 13.8344 10.6108 13.8344 9.99967C13.8344 9.38847 14.1253 8.81373 14.6172 8.45231L15.1485 8.06073C14.9347 7.50041 14.6312 6.97856 14.2499 6.51571L13.6522 6.77825C13.4087 6.88601 13.1452 6.94147 12.8791 6.94105C11.8993 6.94003 11.077 6.20237 10.9701 5.22922L10.8975 4.5778C10.6005 4.52947 10.3017 4.50341 10.0083 4.49993ZM9.9998 7.49997C11.3805 7.49997 12.4998 8.61925 12.4998 10C12.4998 11.3807 11.3805 12.5 9.9998 12.5C8.61909 12.5 7.4998 11.3807 7.4998 10C7.4998 8.61925 8.61909 7.49997 9.9998 7.49997ZM9.9998 8.49997C9.1714 8.49997 8.4998 9.17153 8.4998 10C8.4998 10.8284 9.1714 11.5 9.9998 11.5C10.8282 11.5 11.4998 10.8284 11.4998 10C11.4998 9.17153 10.8282 8.49997 9.9998 8.49997Z" fill="#1E1E1E"/>
</svg>