<svg width="36" height="36" viewBox="0 0 36 36" fill="none" xmlns="http://www.w3.org/2000/svg">
<path d="M26.2444 5C28.7281 5 30.7416 7.01344 30.7416 9.49712C30.7416 11.9808 28.7281 13.9942 26.2444 13.9942C24.9811 13.9942 23.8395 13.4733 23.0226 12.6346L14.837 17.314C14.9395 17.691 14.9942 18.0877 14.9942 18.4971C14.9942 18.9066 14.9395 19.3032 14.837 19.6801L23.0238 24.3585C23.8405 23.5204 24.9817 23.0001 26.2444 23.0001C28.7281 23.0001 30.7416 25.0134 30.7416 27.4971C30.7416 29.9808 28.7281 31.9942 26.2444 31.9942C23.7607 31.9942 21.7473 29.9808 21.7473 27.4971C21.7473 27.0877 21.802 26.691 21.9046 26.314L13.7189 21.6346C12.902 22.4733 11.7604 22.9942 10.4971 22.9942C8.01342 22.9942 6 20.9808 6 18.4971C6 16.0134 8.01342 14 10.4971 14C11.7598 14 12.901 14.5204 13.7178 15.3585L21.9046 10.6802C21.802 10.3032 21.7473 9.90656 21.7473 9.49712C21.7473 7.01344 23.7607 5 26.2444 5Z" fill="#1E3A8A"/>
</svg>
