<svg width="12" height="12" viewBox="0 0 12 12" fill="none" xmlns="http://www.w3.org/2000/svg">
<path d="M12.0001 0.954546C12.0001 0.71344 11.9043 0.482209 11.7338 0.311721C11.5633 0.141233 11.3321 0.0454547 11.091 0.0454547L3.81824 0C3.57713 0 3.3459 0.0957791 3.17541 0.266267C3.00493 0.436754 2.90915 0.667985 2.90915 0.909091C2.90915 1.1502 3.00493 1.38143 3.17541 1.55191C3.3459 1.7224 3.57713 1.81818 3.81824 1.81818H8.87278L1.3546 9.35455C1.26939 9.43906 1.20176 9.5396 1.15561 9.65038C1.10946 9.76116 1.08569 9.87999 1.08569 10C1.08569 10.12 1.10946 10.2388 1.15561 10.3496C1.20176 10.4604 1.26939 10.5609 1.3546 10.6455C1.43911 10.7307 1.53966 10.7983 1.65044 10.8444C1.76122 10.8906 1.88004 10.9144 2.00006 10.9144C2.12007 10.9144 2.23889 10.8906 2.34967 10.8444C2.46045 10.7983 2.561 10.7307 2.64551 10.6455L10.1819 3.10909V8.18182C10.1819 8.42292 10.2777 8.65415 10.4481 8.82464C10.6186 8.99513 10.8499 9.09091 11.091 9.09091C11.3321 9.09091 11.5633 8.99513 11.7338 8.82464C11.9043 8.65415 12.0001 8.42292 12.0001 8.18182V0.954546Z" fill="#1E3A8A"/>
</svg>
