<svg  viewBox="0 0 32 32" fill="none" xmlns="http://www.w3.org/2000/svg">
<path d="M16 7.68C16.7069 7.68 17.28 7.10692 17.28 6.4C17.28 5.69307 16.7069 5.12 16 5.12C15.2931 5.12 14.72 5.69307 14.72 6.4C14.72 7.10692 15.2931 7.68 16 7.68Z" fill="#1E3A8A"/>
<path opacity="0.3" d="M16 26.8799C16.7069 26.8799 17.28 26.3069 17.28 25.5999C17.28 24.893 16.7069 24.3199 16 24.3199C15.2931 24.3199 14.72 24.893 14.72 25.5999C14.72 26.3069 15.2931 26.8799 16 26.8799Z" fill="#1E3A8A"/>
<path opacity="0.3" d="M20.8 8.96002C21.5069 8.96002 22.08 8.38695 22.08 7.68002C22.08 6.9731 21.5069 6.40002 20.8 6.40002C20.0931 6.40002 19.52 6.9731 19.52 7.68002C19.52 8.38695 20.0931 8.96002 20.8 8.96002Z" fill="#1E3A8A"/>
<path opacity="0.3" d="M11.2 25.6C11.9069 25.6 12.48 25.027 12.48 24.32C12.48 23.6131 11.9069 23.04 11.2 23.04C10.4931 23.04 9.92 23.6131 9.92 24.32C9.92 25.027 10.4931 25.6 11.2 25.6Z" fill="#1E3A8A"/>
<path opacity="0.93" d="M11.2 8.96002C11.9069 8.96002 12.48 8.38695 12.48 7.68002C12.48 6.9731 11.9069 6.40002 11.2 6.40002C10.4931 6.40002 9.92 6.9731 9.92 7.68002C9.92 8.38695 10.4931 8.96002 11.2 8.96002Z" fill="#1E3A8A"/>
<path opacity="0.3" d="M20.8 25.6C21.5069 25.6 22.08 25.027 22.08 24.32C22.08 23.6131 21.5069 23.04 20.8 23.04C20.0931 23.04 19.52 23.6131 19.52 24.32C19.52 25.027 20.0931 25.6 20.8 25.6Z" fill="#1E3A8A"/>
<path opacity="0.65" d="M6.4 17.28C7.10693 17.28 7.68 16.7069 7.68 16C7.68 15.293 7.10693 14.72 6.4 14.72C5.69308 14.72 5.12 15.293 5.12 16C5.12 16.7069 5.69308 17.28 6.4 17.28Z" fill="#1E3A8A"/>
<path opacity="0.3" d="M25.6 17.28C26.3069 17.28 26.88 16.7069 26.88 16C26.88 15.293 26.3069 14.72 25.6 14.72C24.8931 14.72 24.32 15.293 24.32 16C24.32 16.7069 24.8931 17.28 25.6 17.28Z" fill="#1E3A8A"/>
<path opacity="0.86" d="M7.68 12.48C8.38693 12.48 8.96 11.907 8.96 11.2C8.96 10.4931 8.38693 9.92004 7.68 9.92004C6.97308 9.92004 6.4 10.4931 6.4 11.2C6.4 11.907 6.97308 12.48 7.68 12.48Z" fill="#1E3A8A"/>
<path opacity="0.3" d="M24.32 22.08C25.0269 22.08 25.6 21.5069 25.6 20.8C25.6 20.0931 25.0269 19.52 24.32 19.52C23.6131 19.52 23.04 20.0931 23.04 20.8C23.04 21.5069 23.6131 22.08 24.32 22.08Z" fill="#1E3A8A"/>
<path opacity="0.44" d="M7.68 22.08C8.38693 22.08 8.96 21.5069 8.96 20.8C8.96 20.0931 8.38693 19.52 7.68 19.52C6.97308 19.52 6.4 20.0931 6.4 20.8C6.4 21.5069 6.97308 22.08 7.68 22.08Z" fill="#1E3A8A"/>
<path opacity="0.3" d="M24.32 12.48C25.0269 12.48 25.6 11.907 25.6 11.2C25.6 10.4931 25.0269 9.92004 24.32 9.92004C23.6131 9.92004 23.04 10.4931 23.04 11.2C23.04 11.907 23.6131 12.48 24.32 12.48Z" fill="#1E3A8A"/>
</svg>
