<svg width="16" height="16" viewBox="0 0 16 16" fill="none" xmlns="http://www.w3.org/2000/svg">
<path d="M11.6667 4.33325C11.6667 4.79349 11.2936 5.16659 10.8334 5.16659C10.3731 5.16659 10 4.79349 10 4.33325C10 3.87301 10.3731 3.49992 10.8334 3.49992C11.2936 3.49992 11.6667 3.87301 11.6667 4.33325ZM7.00511 1.93203C7.40811 1.54768 7.94364 1.33325 8.50051 1.33325H12.1664C13.179 1.33325 13.9998 2.15407 13.9998 3.16659V6.46835C13.9998 7.04905 13.7667 7.60545 13.3528 8.01272L8.72251 12.5689C8.13637 13.1457 7.19517 13.143 6.61234 12.5629L2.44127 8.41172C1.84323 7.81652 1.85357 6.84539 2.46413 6.26304L7.00511 1.93203ZM8.50051 2.33325C8.20064 2.33325 7.91231 2.44871 7.69531 2.65567L3.1543 6.98665C2.95078 7.18079 2.94734 7.50452 3.14668 7.70292L7.31777 11.8541C7.51204 12.0475 7.82577 12.0484 8.02117 11.8561L12.6514 7.29992C12.8743 7.08059 12.9998 6.78105 12.9998 6.46835V3.16659C12.9998 2.70635 12.6267 2.33325 12.1664 2.33325H8.50051ZM13.8206 8.48792L12.8372 9.45552C12.8107 9.49172 12.7809 9.52619 12.7478 9.55865L9.19224 13.0443C9.05251 13.1813 8.89884 13.2955 8.73584 13.3871C7.91077 13.8534 6.84584 13.7356 6.14231 13.0354L4.85473 11.754L3.24723 10.1633C3.22142 10.1378 3.19763 10.111 3.17587 10.0831L2.09001 9.00239C1.88253 9.64039 2.03395 10.3696 2.54386 10.8741L5.44813 13.748C6.67791 14.9649 8.65677 14.9695 9.89231 13.7584L13.4478 10.2728C13.9633 9.76752 14.1152 9.03612 13.9086 8.39739C13.88 8.42812 13.8507 8.45832 13.8206 8.48792Z" fill="#3E3E3E"/>
</svg>
